<?xml version="1.0" encoding="utf-8"?>
<!-- Generator: Adobe Illustrator 25.4.1, SVG Export Plug-In . SVG Version: 6.00 Build 0)  -->
<svg version="1.1" id="Layer_1" xmlns="http://www.w3.org/2000/svg" xmlns:xlink="http://www.w3.org/1999/xlink" x="0px" y="0px"
	 viewBox="0 0 1920 1080" style="enable-background:new 0 0 1920 1080;" xml:space="preserve">
<style type="text/css">
	.st0{fill:#003B71;}
</style>
<g>
	<path class="st0" d="M1394.66,242.52c5.87,2.24,8.81,8.8,6.57,14.66c-2.24,5.87-8.81,8.82-14.68,6.58
		c-5.87-2.24-8.81-8.81-6.56-14.68C1382.22,243.22,1388.79,240.27,1394.66,242.52"/>
	<path class="st0" d="M1175.5,197.84c5.87,2.23,8.81,8.8,6.58,14.66c-2.24,5.87-8.82,8.82-14.68,6.58
		c-5.87-2.25-8.81-8.82-6.57-14.7C1163.07,198.53,1169.64,195.59,1175.5,197.84"/>
	<path class="st0" d="M1318.06,559.53c5.87,2.24,8.81,8.82,6.57,14.67c-2.24,5.88-8.81,8.82-14.69,6.58
		c-5.86-2.25-8.8-8.82-6.56-14.69C1305.62,560.24,1312.19,557.29,1318.06,559.53"/>
	<path class="st0" d="M1180.62,719.76c5.87,2.24,8.81,8.82,6.57,14.67c-2.24,5.88-8.81,8.82-14.69,6.58
		c-5.86-2.25-8.8-8.82-6.56-14.69C1168.18,720.46,1174.75,717.52,1180.62,719.76"/>
	<path class="st0" d="M1020.18,721.23c5.87,2.24,8.81,8.81,6.58,14.66c-2.24,5.88-8.81,8.83-14.68,6.58
		c-5.87-2.25-8.81-8.81-6.56-14.68C1007.75,721.93,1014.32,718.99,1020.18,721.23"/>
	<path class="st0" d="M799.38,879.08c5.87,2.24,8.81,8.81,6.58,14.66c-2.24,5.88-8.81,8.83-14.68,6.58
		c-5.87-2.25-8.81-8.81-6.56-14.68C786.95,879.78,793.52,876.84,799.38,879.08"/>
	<path class="st0" d="M612.49,963.08c3.46,1.32,5.19,5.19,3.88,8.64c-1.32,3.46-5.19,5.2-8.65,3.88c-3.46-1.32-5.19-5.19-3.87-8.65
		C605.17,963.5,609.04,961.76,612.49,963.08"/>
	<path class="st0" d="M821.95,1046.32c3.12,1.19,4.68,4.68,3.49,7.79c-1.19,3.12-4.68,4.69-7.8,3.5c-3.12-1.19-4.68-4.68-3.48-7.8
		C815.35,1046.69,818.84,1045.13,821.95,1046.32"/>
	<path class="st0" d="M888.27,510.6c5.87,2.24,8.81,8.81,6.58,14.66c-2.25,5.88-8.82,8.82-14.69,6.57
		c-5.87-2.24-8.81-8.81-6.57-14.68C875.84,511.3,882.41,508.36,888.27,510.6"/>
	<path class="st0" d="M750.21,549.24c4.09,1.56,6.14,6.13,4.58,10.21c-1.56,4.09-6.14,6.14-10.23,4.58
		c-4.08-1.56-6.14-6.13-4.57-10.23C741.55,549.73,746.12,547.68,750.21,549.24"/>
	<path class="st0" d="M905.29,397.83c5.87,2.24,8.81,8.81,6.58,14.67c-2.24,5.87-8.81,8.82-14.68,6.58
		c-5.87-2.25-8.81-8.81-6.56-14.69C892.86,398.53,899.42,395.6,905.29,397.83"/>
	<path class="st0" d="M672.88,347c5.87,2.24,8.81,8.81,6.58,14.67c-2.24,5.87-8.81,8.82-14.68,6.58c-5.87-2.25-8.81-8.81-6.56-14.69
		C660.45,347.7,667.01,344.76,672.88,347"/>
	<path class="st0" d="M864.87,29.75c5.87,2.24,8.81,8.8,6.58,14.66c-2.25,5.88-8.82,8.82-14.69,6.58
		c-5.87-2.24-8.81-8.82-6.56-14.69C852.44,30.45,859,27.51,864.87,29.75"/>
	<path class="st0" d="M1039.34,125.49c5.87,2.25,8.81,8.81,6.57,14.67c-2.25,5.88-8.81,8.82-14.68,6.58
		c-5.87-2.25-8.81-8.81-6.56-14.68C1026.9,126.2,1033.46,123.25,1039.34,125.49"/>
	<path class="st0" d="M917.23,276.47c5.87,2.24,8.81,8.81,6.58,14.67c-2.25,5.87-8.82,8.82-14.69,6.58
		c-5.87-2.25-8.81-8.81-6.56-14.69C904.8,277.17,911.36,274.22,917.23,276.47"/>
	<path class="st0" d="M946.44,519.57c3.52,1.34,5.29,5.29,3.95,8.81c-1.35,3.52-5.3,5.28-8.82,3.94c-3.52-1.35-5.28-5.28-3.93-8.82
		C938.97,520,942.91,518.23,946.44,519.57"/>
	<path class="st0" d="M1161.12,331.87c3.52,1.34,5.29,5.29,3.95,8.8c-1.34,3.52-5.29,5.29-8.81,3.94c-3.52-1.34-5.29-5.29-3.94-8.81
		C1153.66,332.3,1157.6,330.53,1161.12,331.87"/>
	<path class="st0" d="M988,190.71c3.52,1.34,5.29,5.28,3.95,8.8c-1.34,3.52-5.29,5.29-8.81,3.95c-3.52-1.35-5.29-5.3-3.94-8.82
		C980.54,191.13,984.47,189.37,988,190.71"/>
	<path class="st0" d="M833.46,504.21c3.52,1.35,5.29,5.3,3.95,8.8c-1.35,3.52-5.29,5.28-8.82,3.95c-3.52-1.35-5.29-5.29-3.93-8.82
		C826,504.63,829.94,502.86,833.46,504.21"/>
	<path class="st0" d="M682.69,603.67c3.52,1.35,5.29,5.3,3.95,8.8c-1.35,3.52-5.29,5.28-8.82,3.95c-3.52-1.35-5.29-5.29-3.93-8.82
		C675.22,604.09,679.17,602.32,682.69,603.67"/>
	<path class="st0" d="M895.17,448.89c3.52,1.34,5.29,5.29,3.94,8.8c-1.34,3.53-5.28,5.29-8.8,3.95c-3.52-1.35-5.28-5.29-3.94-8.82
		C887.7,449.31,891.63,447.55,895.17,448.89"/>
	<path class="st0" d="M1007.93,487.19c3.52,1.35,5.29,5.29,3.95,8.81c-1.35,3.52-5.28,5.28-8.81,3.94
		c-3.51-1.35-5.28-5.28-3.93-8.81C1000.47,487.61,1004.41,485.85,1007.93,487.19"/>
	<path class="st0" d="M1037.72,408.16c3.53,1.35,5.29,5.29,3.95,8.8c-1.35,3.53-5.29,5.29-8.81,3.95c-3.52-1.35-5.29-5.29-3.93-8.82
		C1030.26,408.59,1034.2,406.82,1037.72,408.16"/>
	<path class="st0" d="M1131.34,540.08c3.52,1.34,5.29,5.29,3.95,8.8c-1.35,3.52-5.29,5.29-8.81,3.95c-3.52-1.34-5.28-5.28-3.93-8.82
		C1123.88,540.5,1127.82,538.73,1131.34,540.08"/>
	<path class="st0" d="M1401.55,414.55c3.52,1.34,5.28,5.28,3.94,8.79c-1.35,3.52-5.29,5.29-8.81,3.95
		c-3.52-1.35-5.29-5.29-3.94-8.81C1394.09,414.97,1398.03,413.2,1401.55,414.55"/>
	<path class="st0" d="M978.15,620.93c3.52,1.34,5.29,5.29,3.94,8.8c-1.34,3.53-5.28,5.29-8.81,3.95c-3.52-1.35-5.28-5.29-3.93-8.82
		C970.69,621.35,974.63,619.58,978.15,620.93"/>
	<path class="st0" d="M859,591.14c3.52,1.35,5.29,5.3,3.94,8.81c-1.34,3.52-5.29,5.28-8.81,3.94c-3.52-1.34-5.29-5.29-3.94-8.81
		C851.54,591.57,855.48,589.79,859,591.14"/>
	<path class="st0" d="M833.47,703.91c3.52,1.34,5.29,5.29,3.95,8.79c-1.34,3.53-5.29,5.3-8.81,3.95c-3.52-1.35-5.28-5.28-3.93-8.81
		C826.01,704.33,829.94,702.55,833.47,703.91"/>
	<path class="st0" d="M819.52,1057.54l-0.38-2.75L607.66,971.5l-2.5,1.08l43.71-96.19l-16.71-75.1l55.03-21.33l-8.3-168.04
		l-57.72,75.52l-99.04-73.77l-1.09,0.03l0.27-1.5l34.32-194.2l43.14,20.82l66.96-83.7l-36.32-69.09l-4.3-0.03l-67.25,133.52
		l-2.21-1.15l67.96-134.87l4.49,0.04l-3.03-5.76l82.93-37.02l-2.61-0.61l5.33-0.84l8.5-135.92l140.19-63.73l-0.36-1.68l1.84,1.01
		l0.32-0.14l0.45,0.56l172.4,94.61v-2.42l2.14,3.59l135.4,71.93l1.29-0.39l-0.07,0.74l217.71,44.38l1.26-0.46l0.02,0.42l0.43-0.03
		l-0.36,1.48l8.46,166.76l2.13,0.73l-2.44,1.14l-83.99,147.28l6.48,0.83l-7.47,1.26l-0.47,1.96l-0.67-1l-136.58,158.46l-0.94-0.81
		l0.84,0.92L821.25,1054.7L819.52,1057.54z M610.9,970.1l207.86,81.86l-22.24-162.25L610.9,970.1z M798.89,888.69l22.15,161.56
		l139.19-228.87L798.89,888.69z M964.14,819.75l-138.29,227.4l344.36-313.37L964.14,819.75z M651.48,876.64l0.01,0.03l-0.17,0.38
		l-41.2,90.67l185.23-80.23L688.94,783L651.48,876.64z M690.61,781.14l106.13,104.24l32.61-172.88L690.61,781.14z M832.04,711.65
		l-32.72,173.44l213.45-152.37L832.04,711.65z M1011.91,736.4l-204.67,146.1l155.19-64.74L1011.91,736.4z M635.06,802.85
		l15.46,69.48L686.26,783L635.06,802.85z M1016.78,733.18l-50.44,82.95l203.61-84.94l-152,1.89l0.1,0.25L1016.78,733.18z
		 M681.5,614.15l8.14,164.69l139.68-69.1l-31.58-56.73l-116.42-42.74l0.2,3.88L681.5,614.15z M1155.31,657.73l-134.15,72.82
		l153.58-1.91L1155.31,657.73z M832.56,709.2l173.27,20.2l-164.19-60.27L832.56,709.2z M977.43,628.27l38.95,100.77l72.77-119.64
		L977.43,628.27z M1092.41,608.86l-72.81,119.7l135.03-73.3l-14.9-54.39L1092.41,608.86z M842.19,666.68l167.72,61.56L860.33,602.31
		l-3.85,1.24L842.19,666.68z M871.51,608.46l141.71,119.31l-38.41-99.38L871.51,608.46z M1157.56,656.5l19.39,70.77l131.67-152.77
		L1157.56,656.5z M801.31,654.33l29.22,52.5l8.73-38.56L801.31,654.33z M526.17,613.57l94.52,70.4l56.71-74.2L526.17,613.57z
		 M799.46,650.99l40.37,14.82l15.29-67.5L748.64,559.7L799.46,650.99z M1142.2,600.44l14.68,53.59l149.95-81.4L1142.2,600.44z
		 M682.51,608.06l113.36,41.61l-50.33-90.41L682.51,608.06z M867.6,605.17l107.17,20.68l28.93-129.93l-60.63,31.94l3.86,0.52
		l-84.43,72.5L867.6,605.17z M1006.39,495.3l-29.05,130.46l113.53-19.17l35.98-59.15l-2.38-0.3l1.38-0.64L1006.39,495.3z
		 M557.51,421.67l-33.48,189.46l153.93-3.87L597.9,441.02l2.22-1.14l78.32,162.88L666.12,358.6l-66.66,83.32L557.51,421.67z
		 M1126.54,552.73l-32.43,53.31l44.95-7.59L1126.54,552.73z M668.83,362.88l12.26,243.13l63.33-49.03L668.83,362.88z M857.33,599.79
		l-0.63,2.76l1.93-1.66L857.33,599.79z M858.04,597.12l2.52,2.12l80.52-69.14l-56.03-7.51L858.04,597.12z M1128.33,549.8
		l13.21,48.23l163.98-27.7l-175.97-22.55L1128.33,549.8z M748.94,557.16l106.89,38.76l26.73-73.76l-51.33-10.26L748.94,557.16z
		 M1133.35,545.75l174.42,22.35l-101.06-56.43L1133.35,545.75z M1259.81,487l53.65,80.11l28.58-118.31L1259.81,487z M1209.49,510.38
		l100.59,56.17l-52.56-78.48L1209.49,510.38z M1344.94,447.46l-27.65,114.44l78.81-138.2L1344.94,447.46z M669.46,357.62
		l76.72,196.99l79.13-127.88L669.46,357.62z M827.61,427.75l-78.13,126.26l80.82-44.45l60.17-53.94L827.61,427.75z M1007.08,492.88
		l121.8,52.19l75.13-34.9l-167.48-93.51v4.14l-2.51,0.62L1007.08,492.88z M885.62,520.15l57.37,7.69l-10.47-81.18l-38.65,9.61
		L885.62,520.15z M934.95,446.06l10.06,77.95l59.4-31.28l0.2-0.9l0.18,0.08l26.29-69.74L934.95,446.06z M833.71,509.85l49.45,9.89
		l7.91-61.3L833.71,509.85z M1037.75,414.48l169.06,94.4l49.31-22.91l-97.8-146.04l-0.02,0.01l1.46,2.44l-2.14,1.28l-1.44-2.41
		L1037.75,414.48z M1161.78,340.62l96.63,144.28l84.39-39.2l9.56-39.55L1161.78,340.62z M901.7,412.94l-7.39,40.66l37.88-9.42
		l-3.96-30.67L901.7,412.94z M828.93,425.61l62.86,27.88l7.39-40.65l-54.21-13.15L828.93,425.61z M1354.72,406.97l-9.04,37.4
		l50.1-23.28L1354.72,406.97z M930.76,413.55l3.87,30.01l97.52-24.25l1.35-3.58L930.76,413.55z M680.38,359.74l146.25,64.85
		l15.8-25.53L680.38,359.74z M1355.31,404.53l42.47,14.6l-7.98-157.35L1355.31,404.53z M930.43,411.05l101.87,2.17L914.9,290.69
		L930.43,411.05z M916.86,289.13l117.18,122.3l0-97.89L916.86,289.13z M902.15,410.45l25.76,0.55l-14.56-112.87l-10.86,110.5
		L902.15,410.45z M1095.1,326.27l-55.65,84.23l115.45-71.38l-0.27-0.45L1095.1,326.27z M1036.53,314.06l0,96.33l55.94-84.67
		L1036.53,314.06z M846.36,397.45l53.27,12.93l0.38-2.1l11.4-115.97L846.36,397.45z M1162.41,338.2l190.53,65.52l35.91-148.61
		L1162.41,338.2z M672.16,355.18l171.65,41.65l66.57-107.59l-0.73,0.22l0.11-0.14L672.16,355.18z M695.26,286.57l-25.99,66.83
		l235.01-65.13L695.26,286.57z M632.23,286.05l34.8,66.2l25.56-65.71L632.23,286.05z M1156.22,336.45l1.37,0.28l6.52-66.24
		l-33.73,2.4l-6.34,9.59L1156.22,336.45z M1166.62,270.32l-6.5,66.07L1381.89,255L1166.62,270.32z M1096.58,324.03l56.32,11.73
		l-30.4-50.97L1096.58,324.03z M1036.53,311.52l57.42,11.96l27.13-41.06l-5.07-8.5l-79.48,5.65L1036.53,311.52z M922.21,287.7
		l111.83,23.3l0-31.25L922.21,287.7z M696.22,284.08l205.68,1.67l-189.25-43.92L696.22,284.08z M1034.04,251.6l-109.92,33.47
		l109.92-7.82L1034.04,251.6z M718.4,240.61L909,284.84l-67.2-63.75L718.4,240.61z M986.52,198.39l-69.82,86.33l117.33-35.72
		l0-47.69L986.52,198.39z M898.54,212.11l15.32,72.16l69.17-85.53L898.54,212.11z M630.91,283.55l62.64,0.51l16.07-41.31
		l-81.12,36.21L630.91,283.55z M844.9,220.6l66.23,62.83l-15.05-70.93L844.9,220.6z M1118.8,273.72l3.81,6.39l4.62-6.99
		L1118.8,273.72z M1036.53,250.84l0,26.23l78.05-5.55l-22.43-37.61L1036.53,250.84z M1094.61,233.15l22.76,38.16l11.6-0.83
		l39.54-59.84L1094.61,233.15z M1169.72,213.34l-37.62,56.93l32.24-2.29L1169.72,213.34z M1172.56,209.95l-5.69,57.85l214.57-15.26
		L1172.56,209.95z M1036.53,201.45l0,46.78l54.3-16.53l-16.67-27.95L1036.53,201.45z M774.99,157.72l-60.28,80.95l124.8-19.74
		L774.99,157.72z M721.47,106.94l-8.08,129.32l59.78-80.28L721.47,106.94z M1077.18,203.94l16.11,27.01l71.18-21.67L1077.18,203.94z
		 M776.49,155.7l66.13,62.73l52.94-8.37L860.17,43.33L776.49,155.7z M863.14,45.29l34.89,164.38l85.24-13.48L863.14,45.29z
		 M1075.64,201.34l90.15,5.52l-127.15-67.55L1075.64,201.34z M1036.53,198.95l36.09,2.21l-36.09-60.52L1036.53,198.95z
		 M988.45,196.01l45.59,2.79l0-59.16L988.45,196.01z M865.66,44.45L985.58,195.1l47.79-58.6L865.66,44.45z M722.6,104.57l52.07,49.4
		l82.26-110.46L722.6,104.57z"/>
</g>
</svg>
